<?xml version="1.0" encoding="UTF-8"?>
<svg id="Capa_2" xmlns="http://www.w3.org/2000/svg" version="1.1" viewBox="0 0 334.5 39.1">
  <!-- Generator: Adobe Illustrator 29.5.0, SVG Export Plug-In . SVG Version: 2.1.0 Build 137)  -->
  <defs>
    <style>
      .st0 {
        fill: #fff;
        stroke: #2b5788;
        stroke-miterlimit: 10;
        stroke-width: 3px;
      }
    </style>
  </defs>
  <g id="Capa_1-2">
    <g>
      <path class="st0" d="M192.6,21.1c2,.7,4.2,1,6.5,1s4.8-.4,7-1.2c1.2,1.6,2.5,3.1,4,4.5-3.3,1.5-7.1,2.4-11,2.4s-7.3-.8-10.6-2.2c1.5-1.4,2.9-2.9,4.1-4.5Z"/>
      <path class="st0" d="M211.7,17.8c1.5-1.2,2.9-2.6,4-4.1,1.1,1.6,2.5,2.9,4,4.1-1.2,1.5-2.5,2.9-4,4.1-1.5-1.2-2.8-2.6-4-4.1Z"/>
      <path class="st0" d="M178.8,18.1c1.5-1.1,2.9-2.5,4.1-4,1.2,1.5,2.5,2.9,4.1,4-1.2,1.5-2.6,2.8-4.1,4-1.5-1.2-2.9-2.5-4.1-4Z"/>
      <path class="st0" d="M146,17.8c1.5-1.2,2.9-2.6,4-4.1,1.1,1.6,2.5,2.9,4,4.1-1.2,1.5-2.5,2.9-4,4.1-1.5-1.2-2.8-2.6-4-4.1Z"/>
      <path class="st0" d="M159.6,20.9c2.2.8,4.5,1.2,7,1.2s4.4-.4,6.5-1c1.2,1.6,2.6,3.1,4.1,4.5-3.2,1.4-6.8,2.2-10.6,2.2s-7.6-.9-11-2.4c1.5-1.4,2.8-2.9,4-4.5h0Z"/>
      <path class="st0" d="M225.4,20.9c2.2.8,4.5,1.2,7,1.2s4.4-.4,6.5-1c1.2,1.6,2.6,3.1,4.1,4.5-3.2,1.4-6.8,2.2-10.6,2.2s-7.7-.9-11-2.4c1.5-1.4,2.8-2.9,4-4.5Z"/>
      <path class="st0" d="M13.7,18.1c1.5-1.1,2.9-2.5,4.1-4,1.2,1.5,2.5,2.9,4.1,4-1.2,1.5-2.6,2.8-4.1,4-1.5-1.2-2.9-2.5-4.1-4Z"/>
      <path class="st0" d="M244.6,18.1c1.5-1.1,2.9-2.5,4.1-4,1.2,1.5,2.5,2.9,4.1,4-1.2,1.5-2.6,2.8-4.1,4-1.5-1.2-2.9-2.5-4.1-4Z"/>
      <path class="st0" d="M206.1,1.6c0,6.1,2.1,11.7,5.6,16.2-1.7,1.3-3.6,2.4-5.6,3.1-4-5.4-6.4-12.1-6.4-19.3h6.4Z"/>
      <path class="st0" d="M199.1,1.6c0,7.3-2.4,14.1-6.5,19.5-2.1-.7-4-1.7-5.7-3,3.7-4.5,5.9-10.3,5.9-16.5h6.4Z"/>
      <path class="st0" d="M166,1.6c0,7.2-2.4,13.9-6.4,19.3-2-.7-3.9-1.8-5.6-3.1,3.5-4.5,5.6-10.1,5.6-16.2,0,0,6.3,0,6.3,0Z"/>
      <path class="st0" d="M172.9,1.6c0,6.3,2.2,12,5.9,16.5-1.7,1.3-3.7,2.3-5.7,3-4.1-5.4-6.5-12.2-6.5-19.5h6.4Z"/>
      <path class="st0" d="M264.9,1.6c0,7.3-2.4,14.1-6.5,19.5-2.1-.7-4-1.7-5.7-3,3.7-4.5,5.9-10.3,5.9-16.5h6.4Z"/>
      <path class="st0" d="M7.8,1.6c0,6.3,2.2,12,5.9,16.5-1.7,1.3-3.7,2.3-5.7,3C3.9,15.7,1.5,8.9,1.5,1.6h6.3Z"/>
      <path class="st0" d="M231.7,1.6c0,7.2-2.4,13.9-6.4,19.3-2-.7-3.9-1.8-5.6-3.1,3.5-4.5,5.6-10.1,5.6-16.2h6.4Z"/>
      <path class="st0" d="M74.1,1.6c0,6,2,11.6,5.5,16-1.7,1.3-3.5,2.4-5.5,3.2-3.9-5.4-6.3-12-6.3-19.2h6.3,0Z"/>
      <path class="st0" d="M66.7,1.6c0,7.3-2.4,14.1-6.5,19.5-2.1-.7-4-1.7-5.7-3,3.7-4.5,5.9-10.3,5.9-16.5h6.4Z"/>
      <path class="st0" d="M34.1,1.6c0,7.3-2.4,14.1-6.5,19.5-2.1-.7-4-1.7-5.7-3,3.7-4.5,5.9-10.3,5.9-16.5h6.4Z"/>
      <path class="st0" d="M40.4,1.6c0,6.3,2.2,12,5.9,16.5-1.7,1.3-3.7,2.3-5.7,3-4.1-5.4-6.5-12.2-6.5-19.5h6.4Z"/>
      <path class="st0" d="M140.3,1.6c0,6.1,2.1,11.8,5.6,16.2-1.7,1.3-3.6,2.4-5.6,3.1-4-5.4-6.4-12.1-6.4-19.3,0,0,6.3,0,6.3,0Z"/>
      <path class="st0" d="M132.9,1.6c0,7.3-2.4,14-6.4,19.4-2.1-.7-4-1.8-5.6-3.1,3.6-4.5,5.7-10.1,5.7-16.3h6.4Z"/>
      <path class="st0" d="M99.2,1.6c0,7.2-2.3,13.8-6.3,19.2-2-.8-3.9-1.9-5.5-3.2,3.4-4.4,5.5-10,5.5-16h6.3,0Z"/>
      <path class="st0" d="M107.1,1.6c0,6.2,2.1,11.8,5.7,16.3-1.7,1.3-3.6,2.3-5.6,3.1-4-5.4-6.4-12.1-6.4-19.4h6.4Z"/>
      <path class="st0" d="M215.7,21.9c1.7,1.4,3.6,2.6,5.6,3.5-1.7,1.6-3.6,3-5.6,4.2-2-1.2-3.9-2.6-5.6-4.2,2-.9,3.9-2.1,5.6-3.5Z"/>
      <path class="st0" d="M150,21.9c1.7,1.4,3.6,2.6,5.6,3.5-1.7,1.6-3.6,3-5.6,4.2-2-1.2-3.9-2.6-5.6-4.2,2-.9,3.9-2.1,5.6-3.5Z"/>
      <path class="st0" d="M27.6,21.1c2,.7,4.2,1,6.5,1s4.4-.4,6.5-1c1.2,1.6,2.6,3.1,4.1,4.5-3.2,1.4-6.8,2.2-10.6,2.2s-7.3-.8-10.6-2.2c1.5-1.4,2.9-2.9,4.1-4.5Z"/>
      <path class="st0" d="M60.2,21.1c2,.7,4.2,1,6.5,1s5.1-.5,7.3-1.4c1.2,1.6,2.5,3.1,4,4.5-3.4,1.6-7.3,2.5-11.3,2.5s-7.3-.8-10.6-2.2c1.5-1.4,2.9-2.9,4.1-4.5Z"/>
      <path class="st0" d="M17.8,22.1c1.7,1.4,3.7,2.5,5.7,3.5-1.7,1.6-3.7,3-5.7,4.2-2.1-1.2-4-2.6-5.7-4.2,2.1-.9,4-2.1,5.7-3.5Z"/>
      <path class="st0" d="M46.3,18.1c1.5-1.1,2.9-2.5,4.1-4,1.2,1.5,2.5,2.9,4.1,4-1.2,1.5-2.6,2.8-4.1,4-1.5-1.2-2.9-2.5-4.1-4Z"/>
      <path class="st0" d="M182.8,22.1c1.7,1.4,3.7,2.5,5.7,3.5-1.7,1.6-3.7,3-5.7,4.2-2.1-1.2-4-2.6-5.7-4.2,2.1-.9,4-2.1,5.7-3.5Z"/>
      <path class="st0" d="M248.6,22.1c1.7,1.4,3.7,2.5,5.7,3.5-1.7,1.6-3.7,3-5.7,4.2-2.1-1.2-4-2.6-5.7-4.2,2.1-.9,4-2.1,5.7-3.5Z"/>
      <path class="st0" d="M93,20.8c2.3.9,4.8,1.4,7.3,1.4s4.7-.4,6.9-1.2c1.2,1.6,2.5,3.1,4,4.5-3.3,1.5-7,2.4-10.9,2.4s-7.9-.9-11.3-2.5c1.4-1.4,2.8-2.9,4-4.5h0Z"/>
      <path class="st0" d="M112.8,17.9c1.5-1.2,2.9-2.5,4-4.1,1.1,1.5,2.5,2.9,4,4.1-1.2,1.5-2.5,2.9-4,4.1-1.5-1.2-2.8-2.6-4-4.1Z"/>
      <path class="st0" d="M79.5,17.6c1.5-1.2,2.8-2.6,3.9-4.2,1.1,1.6,2.4,3,3.9,4.2-1.2,1.5-2.5,2.9-3.9,4.1-1.5-1.2-2.8-2.6-3.9-4.1Z"/>
      <path class="st0" d="M83.5,21.7c1.7,1.4,3.5,2.6,5.5,3.6-1.7,1.6-3.5,3-5.5,4.2-2-1.2-3.9-2.6-5.5-4.2,2-1,3.9-2.2,5.5-3.6Z"/>
      <path class="st0" d="M50.4,22.1c1.7,1.4,3.7,2.5,5.7,3.5-1.7,1.6-3.7,3-5.7,4.2-2.1-1.2-4-2.6-5.7-4.2,2.1-.9,4-2.1,5.7-3.5Z"/>
      <path class="st0" d="M126.5,21c2.1.8,4.5,1.2,6.9,1.2s4.8-.4,7-1.2c1.2,1.6,2.5,3.1,4,4.5-3.3,1.5-7,2.4-11,2.4s-7.6-.9-10.9-2.4c1.5-1.4,2.8-2.9,4-4.5h0Z"/>
      <path class="st0" d="M116.8,22c1.7,1.4,3.6,2.6,5.6,3.5-1.7,1.6-3.6,3-5.6,4.2-2-1.2-3.9-2.6-5.6-4.2,2-.9,3.9-2.1,5.6-3.5Z"/>
      <path class="st0" d="M17.8,29.8c2.1-1.2,4-2.6,5.7-4.2,3.2,1.4,6.8,2.2,10.6,2.2s7.3-.8,10.6-2.2c1.7,1.6,3.7,3,5.7,4.2-4.8,2.8-10.4,4.4-16.3,4.4s-11.5-1.6-16.3-4.4Z"/>
      <path class="st0" d="M8,21.1c2.1-.7,4-1.7,5.7-3,1.2,1.5,2.6,2.8,4.1,4-1.7,1.4-3.7,2.5-5.7,3.5-1.5-1.4-2.9-2.9-4.1-4.5Z"/>
      <path class="st0" d="M21.9,18.1c1.7,1.3,3.7,2.3,5.7,3-1.2,1.6-2.6,3.1-4.1,4.5-2.1-.9-4-2.1-5.7-3.5,1.5-1.2,2.9-2.5,4.1-4Z"/>
      <path class="st0" d="M13.5,1.6c0,4.7,1.6,9.1,4.3,12.5-1.2,1.5-2.5,2.9-4.1,4C10,13.6,7.8,7.9,7.8,1.6h5.7Z"/>
      <path class="st0" d="M17.8,14.1c2.7-3.5,4.3-7.8,4.3-12.5h5.7c0,6.3-2.2,12-5.9,16.5-1.5-1.1-2.9-2.5-4.1-4Z"/>
      <path class="st0" d="M100.3,27.8c3.9,0,7.6-.9,10.9-2.4,1.7,1.6,3.6,3,5.6,4.2-4.8,2.9-10.5,4.5-16.5,4.5s-11.9-1.7-16.8-4.7c2-1.2,3.9-2.6,5.5-4.2,3.4,1.6,7.3,2.5,11.3,2.5h0Z"/>
      <path class="st0" d="M166.6,27.8c3.8,0,7.3-.8,10.6-2.2,1.7,1.6,3.7,3,5.7,4.2-4.8,2.8-10.4,4.4-16.3,4.4s-11.7-1.7-16.6-4.5c2-1.2,3.9-2.6,5.6-4.2,3.3,1.5,7,2.4,11,2.4h0Z"/>
      <path class="st0" d="M66.7,27.8c4,0,7.9-.9,11.3-2.5,1.7,1.6,3.5,3,5.5,4.2-4.9,3-10.7,4.7-16.8,4.7s-11.5-1.6-16.3-4.4c2.1-1.2,4-2.6,5.7-4.2,3.2,1.4,6.8,2.2,10.6,2.2h0Z"/>
      <path class="st0" d="M40.6,21.1c2.1-.7,4-1.7,5.7-3,1.2,1.5,2.6,2.8,4.1,4-1.7,1.4-3.7,2.5-5.7,3.5-1.5-1.4-2.9-2.9-4.1-4.5Z"/>
      <path class="st0" d="M87.4,17.6c1.7,1.3,3.5,2.4,5.5,3.2-1.2,1.6-2.5,3.1-4,4.5-2-1-3.9-2.2-5.5-3.6,1.5-1.2,2.8-2.6,3.9-4.1h0Z"/>
      <path class="st0" d="M54.4,18.1c1.7,1.3,3.7,2.3,5.7,3-1.2,1.6-2.6,3.1-4.1,4.5-2.1-.9-4-2.1-5.7-3.5,1.5-1.2,2.9-2.5,4.1-4Z"/>
      <path class="st0" d="M46.1,1.6c0,4.7,1.6,9.1,4.3,12.5-1.2,1.5-2.5,2.9-4.1,4-3.7-4.5-5.9-10.3-5.9-16.5,0,0,5.7,0,5.7,0Z"/>
      <path class="st0" d="M74,20.8c2-.8,3.9-1.9,5.5-3.2,1.2,1.5,2.5,2.9,3.9,4.1-1.7,1.4-3.5,2.6-5.5,3.6-1.4-1.4-2.8-2.9-4-4.5h0Z"/>
      <path class="st0" d="M92.9,1.6c0,6-2,11.6-5.5,16-1.5-1.2-2.8-2.6-3.9-4.2,2.3-3.3,3.7-7.4,3.7-11.8h5.7Z"/>
      <path class="st0" d="M60.3,1.6c0,6.3-2.2,12-5.9,16.5-1.5-1.1-2.9-2.5-4.1-4,2.7-3.5,4.3-7.8,4.3-12.5,0,0,5.7,0,5.7,0Z"/>
      <path class="st0" d="M79.8,1.6c0,4.4,1.4,8.4,3.7,11.8-1.1,1.6-2.4,3-3.9,4.2-3.4-4.4-5.5-10-5.5-16h5.7Z"/>
      <path class="st0" d="M133.4,27.8c3.9,0,7.6-.9,11-2.4,1.7,1.6,3.6,3,5.6,4.2-4.9,2.9-10.5,4.5-16.6,4.5s-11.7-1.6-16.5-4.5c2-1.2,3.9-2.6,5.6-4.2,3.3,1.5,7,2.4,10.9,2.4h0Z"/>
      <path class="st0" d="M107.2,21c2.1-.7,4-1.8,5.6-3.1,1.2,1.5,2.5,2.9,4,4.1-1.7,1.4-3.6,2.6-5.6,3.5-1.5-1.4-2.8-2.9-4-4.5h0Z"/>
      <path class="st0" d="M154,17.8c1.7,1.3,3.6,2.4,5.6,3.1-1.2,1.6-2.5,3.1-4,4.5-2-.9-3.9-2.1-5.6-3.5,1.5-1.2,2.8-2.6,4-4.1h0Z"/>
      <path class="st0" d="M120.9,17.9c1.7,1.3,3.6,2.3,5.6,3.1-1.2,1.6-2.5,3.1-4,4.5-2-.9-3.9-2.1-5.6-3.5,1.5-1.2,2.8-2.6,4-4.1h0Z"/>
      <path class="st0" d="M112.8,1.6c0,4.6,1.5,8.8,4,12.2-1.1,1.5-2.5,2.9-4,4.1-3.6-4.5-5.7-10.1-5.7-16.3,0,0,5.7,0,5.7,0Z"/>
      <path class="st0" d="M140.3,20.9c2-.7,3.9-1.8,5.6-3.1,1.2,1.5,2.5,2.9,4,4.1-1.7,1.4-3.6,2.6-5.6,3.5-1.5-1.4-2.8-2.9-4-4.5h0Z"/>
      <path class="st0" d="M159.6,1.6c0,6.1-2.1,11.8-5.6,16.2-1.5-1.2-2.9-2.6-4-4.1,2.5-3.4,4-7.6,4-12.1h5.7Z"/>
      <path class="st0" d="M126.5,1.6c0,6.2-2.1,11.8-5.7,16.3-1.5-1.2-2.9-2.5-4-4.1,2.5-3.4,4-7.6,4-12.2h5.7,0Z"/>
      <path class="st0" d="M146,1.6c0,4.5,1.5,8.7,4,12.1-1.1,1.6-2.5,2.9-4,4.1-3.5-4.5-5.6-10.1-5.6-16.2h5.7Z"/>
      <path class="st0" d="M199.1,27.8c3.9,0,7.7-.9,11-2.4,1.7,1.6,3.6,3,5.6,4.2-4.9,2.9-10.5,4.6-16.6,4.6s-11.5-1.6-16.3-4.4c2.1-1.2,4-2.6,5.7-4.2,3.2,1.4,6.8,2.2,10.6,2.2h0Z"/>
      <path class="st0" d="M173,21.1c2.1-.7,4-1.7,5.7-3,1.2,1.5,2.6,2.8,4.1,4-1.7,1.4-3.7,2.5-5.7,3.5-1.5-1.4-2.9-2.9-4.1-4.5Z"/>
      <path class="st0" d="M186.9,18.1c1.7,1.3,3.7,2.3,5.7,3-1.2,1.6-2.6,3.1-4.1,4.5-2.1-.9-4-2.1-5.7-3.5,1.5-1.2,2.9-2.5,4.1-4Z"/>
      <path class="st0" d="M178.6,1.6c0,4.7,1.6,9.1,4.3,12.5-1.2,1.5-2.5,2.9-4.1,4-3.7-4.5-5.9-10.3-5.9-16.5,0,0,5.7,0,5.7,0Z"/>
      <path class="st0" d="M192.8,1.6c0,6.3-2.2,12-5.9,16.5-1.5-1.1-2.9-2.5-4.1-4,2.7-3.5,4.3-7.8,4.3-12.5,0,0,5.7,0,5.7,0Z"/>
      <path class="st0" d="M232.4,27.8c3.8,0,7.3-.8,10.6-2.2,1.7,1.6,3.7,3,5.7,4.2-4.8,2.8-10.4,4.4-16.3,4.4s-11.8-1.7-16.6-4.6c2-1.2,3.9-2.6,5.6-4.2,3.3,1.5,7.1,2.4,11,2.4h0Z"/>
      <path class="st0" d="M206.1,20.9c2-.7,3.9-1.8,5.6-3.1,1.2,1.5,2.5,2.9,4,4.1-1.7,1.4-3.6,2.6-5.6,3.5-1.5-1.4-2.8-2.9-4-4.5Z"/>
      <path class="st0" d="M219.7,17.8c1.7,1.3,3.6,2.4,5.6,3.1-1.2,1.6-2.5,3.1-4,4.5-2-.9-3.9-2.1-5.6-3.5,1.5-1.2,2.8-2.6,4-4.1Z"/>
      <path class="st0" d="M211.8,1.6c0,4.5,1.5,8.7,3.9,12.1-1.1,1.6-2.5,2.9-4,4.1-3.5-4.5-5.6-10.1-5.6-16.2,0,0,5.7,0,5.7,0Z"/>
      <path class="st0" d="M225.4,1.6c0,6.1-2.1,11.7-5.6,16.2-1.5-1.2-2.9-2.6-4-4.1,2.5-3.4,3.9-7.6,3.9-12.1,0,0,5.7,0,5.7,0Z"/>
      <path class="st0" d="M238.8,21.1c2.1-.7,4-1.7,5.7-3,1.2,1.5,2.6,2.8,4.1,4-1.7,1.4-3.7,2.5-5.7,3.5-1.5-1.4-2.9-2.9-4.1-4.5Z"/>
      <path class="st0" d="M252.7,18.1c1.7,1.3,3.7,2.3,5.7,3-1.2,1.6-2.6,3.1-4.1,4.5-2.1-.9-4-2.1-5.7-3.5,1.5-1.2,2.9-2.5,4.1-4Z"/>
      <path class="st0" d="M310.6,18c1.5-1.1,2.9-2.5,4.1-4,1.2,1.5,2.5,2.9,4.1,4-1.2,1.5-2.6,2.8-4.1,4-1.5-1.2-2.9-2.5-4.1-4Z"/>
      <path class="st0" d="M304.7,1.5c0,6.3,2.2,12,5.9,16.5-1.7,1.3-3.7,2.3-5.7,3-4.1-5.4-6.5-12.2-6.5-19.5h6.4Z"/>
      <path class="st0" d="M314.7,22c1.7,1.4,3.7,2.5,5.7,3.5-1.7,1.6-3.7,3-5.7,4.2-2.1-1.2-4-2.6-5.7-4.2,2.1-.9,4-2.1,5.7-3.5Z"/>
      <path class="st0" d="M304.9,21c2.1-.7,4-1.7,5.7-3,1.2,1.5,2.6,2.8,4.1,4-1.7,1.4-3.7,2.5-5.7,3.5-1.5-1.4-2.9-2.9-4.1-4.5h0Z"/>
      <path class="st0" d="M318.8,18c1.7,1.3,3.7,2.3,5.7,3-1.2,1.6-2.6,3.1-4.1,4.5-2.1-.9-4-2.1-5.7-3.5,1.5-1.2,2.9-2.5,4.1-4h0Z"/>
      <path class="st0" d="M310.4,1.5c0,4.7,1.6,9.1,4.3,12.5-1.2,1.5-2.5,2.9-4.1,4-3.7-4.5-5.9-10.3-5.9-16.5h5.7Z"/>
      <path class="st0" d="M258.6,1.6c0,6.3-2.2,12-5.9,16.5-1.5-1.1-2.9-2.5-4.1-4,2.7-3.5,4.3-7.8,4.3-12.5,0,0,5.7,0,5.7,0Z"/>
      <path class="st0" d="M244.5,17.8c1.5-1.2,2.9-2.6,4-4.1,1.1,1.6,2.5,2.9,4,4.1-1.2,1.5-2.5,2.9-4,4.1-1.5-1.2-2.8-2.6-4-4.1Z"/>
      <path class="st0" d="M258.2,20.9c2.2.8,4.5,1.2,7,1.2s4.4-.4,6.5-1c1.2,1.6,2.6,3.1,4.1,4.5-3.2,1.4-6.8,2.2-10.6,2.2s-7.7-.9-11-2.4c1.5-1.4,2.8-2.9,4-4.5h0Z"/>
      <path class="st0" d="M277.4,18.1c1.5-1.1,2.9-2.5,4.1-4,1.2,1.5,2.5,2.9,4.1,4-1.2,1.5-2.6,2.8-4.1,4-1.5-1.2-2.9-2.5-4.1-4Z"/>
      <path class="st0" d="M238.9,1.6c0,6.1,2.1,11.7,5.6,16.2-1.7,1.3-3.6,2.4-5.6,3.1-4-5.4-6.4-12.1-6.4-19.3h6.4Z"/>
      <path class="st0" d="M297.7,1.6c0,7.3-2.4,14.1-6.5,19.5-2.1-.7-4-1.7-5.7-3,3.7-4.5,5.9-10.3,5.9-16.5h6.4Z"/>
      <path class="st0" d="M248.5,21.9c1.7,1.4,3.6,2.6,5.6,3.5-1.7,1.6-3.6,3-5.6,4.2-2-1.2-3.9-2.6-5.6-4.2,2-.9,3.9-2.1,5.6-3.5Z"/>
      <path class="st0" d="M281.4,22.1c1.7,1.4,3.7,2.5,5.7,3.5-1.7,1.6-3.7,3-5.7,4.2-2.1-1.2-4-2.6-5.7-4.2,2.1-.9,4-2.1,5.7-3.5Z"/>
      <path class="st0" d="M265.2,27.8c3.8,0,7.3-.8,10.6-2.2,1.7,1.6,3.7,3,5.7,4.2-4.8,2.8-10.4,4.4-16.3,4.4s-11.8-1.7-16.6-4.6c2-1.2,3.9-2.6,5.6-4.2,3.3,1.5,7.1,2.4,11,2.4h0Z"/>
      <path class="st0" d="M238.9,20.9c2-.7,3.9-1.8,5.6-3.1,1.2,1.5,2.5,2.9,4,4.1-1.7,1.4-3.6,2.6-5.6,3.5-1.5-1.4-2.8-2.9-4-4.5Z"/>
      <path class="st0" d="M252.5,17.8c1.7,1.3,3.6,2.4,5.6,3.1-1.2,1.6-2.5,3.1-4,4.5-2-.9-3.9-2.1-5.6-3.5,1.5-1.2,2.8-2.6,4-4.1Z"/>
      <path class="st0" d="M244.6,1.6c0,4.5,1.5,8.7,3.9,12.1-1.1,1.6-2.5,2.9-4,4.1-3.5-4.5-5.6-10.1-5.6-16.2,0,0,5.7,0,5.7,0Z"/>
      <path class="st0" d="M271.6,21.1c2.1-.7,4-1.7,5.7-3,1.2,1.5,2.6,2.8,4.1,4-1.7,1.4-3.7,2.5-5.7,3.5-1.5-1.4-2.9-2.9-4.1-4.5h0Z"/>
      <path class="st0" d="M285.5,18.1c1.7,1.3,3.7,2.3,5.7,3-1.2,1.6-2.6,3.1-4.1,4.5-2.1-.9-4-2.1-5.7-3.5,1.5-1.2,2.9-2.5,4.1-4h0Z"/>
      <path class="st0" d="M291.4,1.6c0,6.3-2.2,12-5.9,16.5-1.5-1.1-2.9-2.5-4.1-4,2.7-3.5,4.3-7.8,4.3-12.5,0,0,5.7,0,5.7,0Z"/>
      <path class="st0" d="M277.5,18.1c1.5-1.2,2.9-2.6,4-4.1,1.1,1.6,2.5,2.9,4,4.1-1.2,1.5-2.5,2.9-4,4.1-1.5-1.2-2.8-2.6-4-4.1Z"/>
      <path class="st0" d="M291.1,21.2c2.2.8,4.5,1.2,7,1.2s4.4-.4,6.5-1c1.2,1.6,2.6,3.1,4.1,4.5-3.2,1.4-6.8,2.2-10.6,2.2s-7.7-.9-11-2.4c1.5-1.4,2.8-2.9,4-4.5h0Z"/>
      <path class="st0" d="M310.3,18.4c1.5-1.1,2.9-2.5,4.1-4,1.2,1.5,2.5,2.9,4.1,4-1.2,1.5-2.6,2.8-4.1,4-1.5-1.2-2.9-2.5-4.1-4Z"/>
      <path class="st0" d="M271.8,1.9c0,6.1,2.1,11.7,5.6,16.2-1.7,1.3-3.6,2.4-5.6,3.1-4-5.4-6.4-12.1-6.4-19.3h6.4Z"/>
      <path class="st0" d="M330.6,1.9c0,7.3-2.4,14.1-6.5,19.5-2.1-.7-4-1.7-5.7-3,3.7-4.5,5.9-10.3,5.9-16.5h6.4Z"/>
      <path class="st0" d="M281.5,22.2c1.7,1.4,3.6,2.6,5.6,3.5-1.7,1.6-3.6,3-5.6,4.2-2-1.2-3.9-2.6-5.6-4.2,2-.9,3.9-2.1,5.6-3.5Z"/>
      <path class="st0" d="M314.4,22.5c1.7,1.4,3.7,2.5,5.7,3.5-1.7,1.6-3.7,3-5.7,4.2-2.1-1.2-4-2.6-5.7-4.2,2.1-.9,4-2.1,5.7-3.5Z"/>
      <path class="st0" d="M298.1,28.2c3.8,0,7.3-.8,10.6-2.2,1.7,1.6,3.7,3,5.7,4.2-4.8,2.8-10.4,4.4-16.3,4.4s-11.8-1.7-16.6-4.6c2-1.2,3.9-2.6,5.6-4.2,3.3,1.5,7.1,2.4,11,2.4h0Z"/>
      <path class="st0" d="M271.8,21.2c2-.7,3.9-1.8,5.6-3.1,1.2,1.5,2.5,2.9,4,4.1-1.7,1.4-3.6,2.6-5.6,3.5-1.5-1.4-2.8-2.9-4-4.5Z"/>
      <path class="st0" d="M285.5,18.1c1.7,1.3,3.6,2.4,5.6,3.1-1.2,1.6-2.5,3.1-4,4.5-2-.9-3.9-2.1-5.6-3.5,1.5-1.2,2.8-2.6,4-4.1Z"/>
      <path class="st0" d="M277.5,1.9c0,4.5,1.5,8.7,3.9,12.1-1.1,1.6-2.5,2.9-4,4.1-3.5-4.5-5.6-10.1-5.6-16.2h5.7Z"/>
      <path class="st0" d="M304.5,21.4c2.1-.7,4-1.7,5.7-3,1.2,1.5,2.6,2.8,4.1,4-1.7,1.4-3.7,2.5-5.7,3.5-1.5-1.4-2.9-2.9-4.1-4.5h0Z"/>
      <path class="st0" d="M318.4,18.4c1.7,1.3,3.7,2.3,5.7,3-1.2,1.6-2.6,3.1-4.1,4.5-2.1-.9-4-2.1-5.7-3.5,1.5-1.2,2.9-2.5,4.1-4h0Z"/>
      <path class="st0" d="M324.3,1.9c0,6.3-2.2,12-5.9,16.5-1.5-1.1-2.9-2.5-4.1-4,2.7-3.5,4.3-7.8,4.3-12.5,0,0,5.7,0,5.7,0Z"/>
    </g>
  </g>
</svg>