<?xml version="1.0" encoding="UTF-8"?>
<svg id="Capa_2" xmlns="http://www.w3.org/2000/svg" version="1.1" viewBox="0 0 388.2 301.5">
  <!-- Generator: Adobe Illustrator 29.5.0, SVG Export Plug-In . SVG Version: 2.1.0 Build 137)  -->
  <defs>
    <style>
      .st0 {
        stroke: #2c5789;
        stroke-width: .5px;
      }

      .st0, .st1 {
        stroke-miterlimit: 10;
      }

      .st0, .st2 {
        fill: #2c5789;
      }

      .st3 {
        fill: #f5f3b0;
      }

      .st4 {
        fill: #c59c68;
      }

      .st5 {
        fill: #f9d12a;
      }

      .st6 {
        fill: #14b9a5;
      }

      .st7 {
        fill: #f89729;
      }

      .st8 {
        fill: #b01a75;
      }

      .st9 {
        fill: #307f4d;
      }

      .st10 {
        fill: #fff;
      }

      .st11 {
        fill: #d3ba8c;
      }

      .st12 {
        fill: #f7901e;
      }

      .st1 {
        fill: #f7934c;
        stroke: #b5542c;
        stroke-width: 4px;
      }

      .st13 {
        opacity: .7;
      }

      .st14 {
        fill: #aa5a5b;
      }
    </style>
  </defs>
  <g id="cistell">
    <path class="st7" d="M277.2,113.9l-121.7,87.9-70.6-63.2s6.2-49.2,57.3-57c27.3-4.2,53.7-33.1,67.8-37.3,0,0,15.5-11.6,48.1,3.8,28.5,13.5,30.5,49.4,19.2,65.7"/>
    <path class="st2" d="M249.5,56.7c1.2,2.6,2.7,5.1,5,6.8s5.3,2.7,8.2,1.9c1.5-.4.8-2.7-.6-2.3-5,1.4-8.7-3.7-10.4-7.7-.3-.6-1.1-.7-1.6-.4-.6.3-.7,1-.4,1.6h0Z"/>
    <g class="st13">
      <path class="st2" d="M213.6,22.2c2.5-2.3,6.7-2,8.6.9.8,1.2,1.6,3.3.8,4.7s-2.8.6-3.5-.6c-1.6-2.7.3-5.5,2.6-6.9,2.5-1.5,5.6-1.9,8.4-1.3,3.1.7,5.5,2.7,7.5,5,1.8,2.2,4.5,6.6.9,8.5-1,.5-2.4.6-3-.6-.7-1.4.5-3,1.5-3.8,2.3-2.1,6.2-2.8,9.2-2,1.8.4,3.4,1.4,4.6,2.8,1.4,1.6,2.4,3.5,3.4,5.4,2.1,3.8,4,8,3.5,12.5-.1,1,1.5,1,1.6,0,.6-4.9-1.6-9.5-3.9-13.7-1.1-2-2.3-4.2-3.9-5.9-1.4-1.4-3.2-2.3-5.2-2.7-3.8-.8-8.6.2-11.1,3.4-1.1,1.4-1.9,3.3-.9,5,.8,1.5,2.6,2,4.2,1.5s2.9-1.7,3.3-3.3c.6-2.2-.4-4.6-1.6-6.4-2.2-3.2-5.3-6.2-9.2-7.1-3.5-.9-7.6-.2-10.6,1.9-1.4,1-2.5,2.2-3.1,3.8-.6,1.7-.2,3.8.9,5.3,1.1,1.4,3.2,2.1,4.9,1.1,1.8-1.1,1.8-3.6,1.2-5.4-1.3-4-5.6-6.2-9.6-4.7-.9.3-1.8.9-2.5,1.5s.4,1.8,1.1,1.1h0Z"/>
    </g>
    <path class="st8" d="M117.4,155l24.5-44.6c1.3-2.4,3.2-4.6,5.4-6.3,5.4-4,15.7-9.5,25.7-2.1,7.8,5.8,12.5,4,24.3,5.8,9.4,1.4,13.5,6.8,14.4,12.9.5,3.1,1.9,5.9,3.7,8.5,2.4,3.4,4.1,8.6,1.4,16.5-2.9,8.4-16,41.2-23.3,59.5-3,7.6-10.5,12.6-18.7,12.4l-36.2-.6c-9.8-.2-18.1-7.5-19.3-17.3l-4.2-32.7c-.5-4.2.3-8.4,2.3-12.1h0Z"/>
    <path class="st2" d="M168.2,111.8c4.9,3.4,9.8,7.8,10.7,13.8.6,4-.7,8-2.1,11.9,3.4-2.8,7.1-5.2,11-7.3,3-1.6,6.4-3,9.8-2.5,3.1.4,5.8,2.4,8.4,4.2-3.4-4.8-9.7-7.4-15.5-6.5,3.8-3.3,8.9-4.5,13.8-5.6-6.1.3-12.2.6-18.3,1-.7,0-1.5,0-2-.4-.7-.5-.7-1.5-.9-2.3-.6-4.1-3.4-7.8-7.2-9.5,3.4,2.6,4.9,7.4,3.7,11.5-1.4-2.1-2.9-4.3-4.8-5.9-1.9-1.7-4.4-2.8-7-2.6"/>
    <path class="st2" d="M168,112.1c3.7,2.6,7.4,5.7,9.4,9.8,2.4,5.1.8,10.4-.9,15.4-.1.4.4.6.7.4,2.1-1.7,4.3-3.3,6.7-4.8s4.7-2.8,7.3-3.9,5.3-1.5,8-.7c2.5.7,4.6,2.3,6.7,3.8.3.2.8-.2.5-.5-3.6-5-9.9-7.6-15.9-6.7l.4.7c3.8-3.2,8.8-4.4,13.6-5.5.4-.1.3-.8-.1-.8-5.3.3-10.6.6-15.9.8h-1.9c-.6.1-1.2.2-1.8,0-1.2-.4-1.1-2-1.3-3-.4-1.8-1.2-3.6-2.3-5.1-1.3-1.7-3-3.1-5-4-.4-.2-.9.3-.5.6,3.3,2.6,4.7,7,3.6,11.1h.7c-2.8-4.3-6.4-9.2-12.1-8.8-.5,0-.5.8,0,.8,5.3-.4,8.8,4.4,11.4,8.3.2.3.6.2.7,0,1.2-4.3-.4-9.1-3.8-11.9l-.5.6c3.9,1.7,6.5,5.3,7.1,9.5.1.8.3,1.8,1,2.3.8.6,1.9.5,2.8.4,2.8-.1,5.6-.3,8.4-.4,3.1-.2,6.2-.3,9.3-.5v-.8c-5,1.1-10.1,2.4-14.1,5.7-.3.3,0,.7.4.7,5.7-.9,11.7,1.6,15,6.3l.5-.5c-2.2-1.6-4.5-3.3-7.1-4s-5.4-.3-7.9.7-5.1,2.4-7.5,3.9-4.8,3.2-7.1,5l.7.4c1.8-5.1,3.3-10.5,1-15.8-2-4.4-5.9-7.6-9.8-10.3-.4-.3-.8.4-.4.7h0Z"/>
    <path class="st2" d="M193.7,83.8c2.3-1.3,5.5-.5,6.9,1.7-4.2,12-8.3,25-14.4,36.1-.7-.1-2.1,0-2.1-.7-.3-8.8,4.3-19.4,5.9-28.1.6-3.2.9-6.7,3.2-8.9"/>
    <path class="st2" d="M193.9,84.2c1.1-.6,2.3-.7,3.5-.4.6.1,1.1.4,1.6.7.3.2.5.4.7.6.3.3.5.4.4.8,0,.7-.5,1.4-.7,2-.3.8-.5,1.5-.8,2.3-.5,1.5-1,3-1.5,4.5-2.1,5.9-4.2,11.8-6.7,17.6-1.4,3.2-2.9,6.3-4.5,9.3l.5-.2c-.4,0-.8,0-1.3-.1-.4,0-.5,0-.5-.4,0-.3,0-.8,0-1.1,0-1.4.2-2.7.3-4,.4-2.7,1-5.3,1.7-8,1.4-5.2,3.1-10.3,4-15.6.5-2.7.9-5.8,3-7.8.4-.4-.2-.9-.6-.6-1.9,1.8-2.5,4.4-3,6.9-.5,2.8-1.1,5.5-1.8,8.3-1.6,5.8-3.5,11.5-4.2,17.4,0,.8-.2,1.6-.2,2.4,0,.7-.1,1.5,0,2.3.2,1.1,1.5.9,2.4,1,.2,0,.4,0,.5-.2,3.3-6,5.9-12.3,8.2-18.7,1.2-3.2,2.3-6.4,3.4-9.7.6-1.6,1.1-3.2,1.7-4.9.3-.8.5-1.5.8-2.3s.4-1-.1-1.6c-1.7-2.1-4.8-2.6-7.1-1.4-.5.2,0,.9.4.7h0Z"/>
    <path class="st6" d="M121.6,216.9c10.7-.2,18.8-20.6,25.9-39.5,7.2-18.9,15.9-22.8,37-20.6,21.2,2.2,26.5-2.6,26.5-2.6,0,0,9.4-4.5,14.6-15.1,5.7-11.6,12.3-27.7,42.9-24.3,6.3.7,13.8-3.3,18.7-7.4,4.7-3.9,9.7-8.9,13.6-12.8,7.1-7.3,16.7-11.9,26.9-12.3,7.8-.3,16.3,1.8,22.4,9.7,16.4,21.4-16.9,61.8-16.9,61.8l-179.6,63.7-32.1-.7h0Z"/>
    <path class="st9" d="M329.9,101.9l-13.2,5.6s-42,29.3-46.4,38.6l14.9-6.8s34.8-28.7,45.7-34.6c.3-.2.5-.5.4-.8l-.3-1.4c-.1-.5-.6-.7-1-.5h0Z"/>
    <path class="st9" d="M357.5,165.9s20.9-39.8-6.2-50.6c-41.3-11.4-32.3,24.9-66.1,23.9-29.5-7.4-41.2,14.8-52.8,26.8-11.2,11.6-31.7,8.7-31.7,8.7,0,0-40.4-7.2-49.8,34.4l-14.7,8,42.9,3.6"/>
    <path class="st6" d="M346.1,131.3c0-.2-.2-.3-.4-.3-2.7,1.1-22.6,9.1-29.6,14.5-5.4,4.2-22.3,12.6-31.7,17.1-4,1.9-8.1,3.6-12.4,5.1-14.4,5-50.6,17.8-58.3,22.5-9.7,5.9,4.6,2.8,4.6,2.8,0,0,35.8-13.8,50.8-19.9,2.9-1.2,5.9-2.3,8.9-3.2,11.3-3.5,53.2-25.2,53.2-25.2,0,0,14.1-8.2,14.9-13.5h0Z"/>
    <path class="st6" d="M182.7,202.3s11.1-17.8,47-10.2c28.5,6,39.8-10,41.6-11.8,1.8-1.8,19.5-17.9,39.1-11.4,14.3,4.7,23.5,1.9,28.8-1.4,6.5-4,14.6-5,21.5-1.7,6,2.8,10.5,8.2,13,17.3,4.6,17-7.1,30.3-21,32.5-12.5,2.1-22.5-4.3-30.7.8-11,6.9-139.3,1.1-139.3,1.1l-20.4.4,20.4-15.7h0Z"/>
    <path class="st9" d="M356.4,185.5l-2.9-2.7c0,0-.2-.1-.3-.1-2-.1-21.2-1.2-39.1,6l-41.1,15.2-30,11.5c-.6.2-.4,1,.2,1h8.6c0,0,.1,0,.2,0,1.3-.4,18.2-6.2,20.7-6.9,3.7-1.1,25.1-8.9,25.5-9.1h0c.4-.2,28.4-12.5,58-14.1.5,0,.7-.6.3-.9h0Z"/>
    <path class="st5" d="M31.9,124.7s-40.5,51.3-1.4,101.3c9.4,12.1,31.1,20.7,60.7,17.3,0,0,28.5-7.3,33.3-37.3,4.8-30-9.9-57.4-39.2-71.7-29.3-14.3-47.1-11.7-53.4-9.5h0Z"/>
    <path class="st2" d="M29.6,79.4c1.5,4.6,3.4,9.1,4.6,13.8,1.3,5,.9,9.2.1,14.3-1.3,8.7-1.1,17.4,2.6,25.6,1.3,2.8,5.4.4,4.1-2.4-4-8.8-2.5-17.8-1.2-27,1.2-8.9-2.9-17.3-5.6-25.5-.9-2.9-5.5-1.7-4.6,1.3h0Z"/>
    <path class="st2" d="M41.9,126.4c0,1.2,0,2.4-.4,3.6-.2.9-.6,1.6-1.2,2.2,0,0,0,0-.1.1,0,0,0,0,0,0,0,0-.2.1-.3.2s-.2.1-.3.2c0,0,0,0,0,0,0,0-.2,0-.3.1-.7.2-1.4.4-2.1.4-1.5,0-3-.2-4.5-.6-.6-.1-1.3.2-1.5.8-.2.6.2,1.3.8,1.5,3.1.6,7.1,1.4,9.8-.9,2.1-1.8,2.4-5,2.4-7.6,0-1.5-2.3-1.5-2.4,0h0Z"/>
    <path class="st0" d="M37.8,93.5s22.2-32.7,55.4-32.6c27.7,0,40,8.3,62.6,2.5,0,0-17.6,31.9-53.3,38.6-35.7,6.7-53.4,3.3-64.8-8.5h0Z"/>
    <path class="st3" d="M62.7,142.4v.3c0,.2,0,.3.1.5,0,.1.1.3.2.4.1.1.2.2.4.2.1,0,.3.1.5.1h.3c.2-.1.4-.2.5-.3l.2-.2c.1-.2.2-.4.2-.6v-.3c0-.2,0-.3-.1-.5,0-.1-.1-.3-.2-.4-.1-.1-.2-.2-.4-.2-.1,0-.3-.1-.5-.1h-.3c-.2.1-.4.2-.5.3l-.2.2c-.1.2-.2.4-.2.6h0Z"/>
    <path class="st3" d="M56.7,156.6c1.5,0,1.5-2.4,0-2.4s-1.5,2.4,0,2.4h0Z"/>
    <path class="st3" d="M72.1,156.9c1.5,0,1.5-2.4,0-2.4s-1.5,2.4,0,2.4h0Z"/>
    <path class="st3" d="M72.1,171.9c1.5,0,1.5-2.4,0-2.4s-1.5,2.4,0,2.4h0Z"/>
    <path class="st3" d="M87.8,164.8c1.5,0,1.5-2.4,0-2.4s-1.5,2.4,0,2.4h0Z"/>
    <path class="st3" d="M86.1,151.5c1.5,0,1.5-2.4,0-2.4s-1.5,2.4,0,2.4h0Z"/>
    <path class="st3" d="M49.6,170.9c1.5,0,1.5-2.4,0-2.4s-1.5,2.4,0,2.4h0Z"/>
    <path class="st3" d="M101.1,161.3c1.5,0,1.5-2.4,0-2.4s-1.5,2.4,0,2.4h0Z"/>
    <path class="st3" d="M52.7,136.8c1.5,0,1.5-2.4,0-2.4s-1.5,2.4,0,2.4h0Z"/>
    <path class="st3" d="M42.8,151.1c1,0,1-1.6,0-1.6s-1,1.6,0,1.6h0Z"/>
    <path class="st3" d="M47.5,187.9c1,0,1-1.6,0-1.6s-1,1.6,0,1.6h0Z"/>
    <path class="st3" d="M71.1,208.7c1,0,1-1.6,0-1.6s-1,1.6,0,1.6h0Z"/>
    <path class="st3" d="M87.8,210.7c1,0,1-1.6,0-1.6s-1,1.6,0,1.6h0Z"/>
    <path class="st3" d="M106.3,202.6c1,0,1-1.6,0-1.6s-1,1.6,0,1.6h0Z"/>
    <path class="st3" d="M94,198.4c1,0,1-1.6,0-1.6s-1,1.6,0,1.6h0Z"/>
    <path class="st3" d="M120.2,202.9c1,0,1-1.6,0-1.6s-1,1.6,0,1.6h0Z"/>
    <path class="st3" d="M112.3,187.9c1,0,1-1.6,0-1.6s-1,1.6,0,1.6h0Z"/>
    <path class="st3" d="M112.3,173.9c1,0,1-1.6,0-1.6s-1,1.6,0,1.6h0Z"/>
    <path class="st3" d="M100.1,178.6c1,0,1-1.6,0-1.6s-1,1.6,0,1.6h0Z"/>
    <path class="st10" d="M17.3,221.2h323.6c2,0,2-3.2,0-3.2H17.3c-2,0-2,3.2,0,3.2h0Z"/>
    <path class="st4" d="M115,212.4s4.2-20.3,27.5-34.6c20.4-12.5,41.7-11.4,55-6.4,13.3,5,19.7,10.8,19.7,10.8,0,0,4.4-.7,10.1,4.4,3.4,3,5.8,7,7.1,11.2.6,2.1,1.5,4.7,2.5,6.5,1.9,3.5,1.7,12.8-2.8,18.4-4.6,5.5-5.3,10.5-20.3,16.9s-24.5,8.8-24.5,8.8c0,0-15.2,2.2-21.2,1.5,0,0-26.4,5.5-36.4-1.3-10.1-6.8-21.4-17.2-16.7-36.2h0Z"/>
    <path class="st11" d="M214.2,183.4s5.4,7.3,6.1,8.8,1.4-.7,1.4-.7l-3.3-3.7s-2.3-3.6-4.2-4.4h0Z"/>
    <path class="st11" d="M219.3,184.9s-1.4-2.6-2.6-3.2c0,0,3.3,5.3,3.7,6.4"/>
    <path class="st11" d="M131.4,228.2v.7c-.2.2-.4.5-.7.5h-.1c-.6.2-.7.8-.3,1.2h0c.3.3.9.3,1.2,0l1.7-1.6c.3-.3.2-.8-.2-1l-.3-.2c-.5-.2-1.1,0-1.2.5h0Z"/>
    <path class="st11" d="M162.1,214.9c2,0,2-3.2,0-3.2s-2,3.2,0,3.2h0Z"/>
    <path class="st11" d="M177,204.2c2,0,2-3.2,0-3.2s-2,3.2,0,3.2h0Z"/>
    <path class="st11" d="M181.6,215.3c2,0,2-3.2,0-3.2s-2,3.2,0,3.2h0Z"/>
    <path class="st11" d="M196.9,201.1c2,0,2-3.2,0-3.2s-2,3.2,0,3.2h0Z"/>
    <path class="st11" d="M213.7,210.7c2,0,2-3.2,0-3.2s-2,3.2,0,3.2h0Z"/>
    <path class="st11" d="M206.1,189.6c2,0,2-3.2,0-3.2s-2,3.2,0,3.2h0Z"/>
    <path class="st11" d="M198,213.4c2,0,2-3.2,0-3.2s-2,3.2,0,3.2h0Z"/>
    <path class="st11" d="M214.9,226c2,0,2-3.2,0-3.2s-2,3.2,0,3.2h0Z"/>
    <path class="st11" d="M196.1,236c2,0,2-3.2,0-3.2s-2,3.2,0,3.2h0Z"/>
    <path class="st11" d="M174.7,234.4c2,0,2-3.2,0-3.2s-2,3.2,0,3.2h0Z"/>
    <path class="st11" d="M162.1,245.1c2,0,2-3.2,0-3.2s-2,3.2,0,3.2h0Z"/>
    <path class="st11" d="M147.1,242.5c2,0,2-3.2,0-3.2s-2,3.2,0,3.2h0Z"/>
    <path class="st11" d="M154.4,232.9c2,0,2-3.2,0-3.2s-2,3.2,0,3.2h0Z"/>
    <path class="st11" d="M142.9,224.9c2,0,2-3.2,0-3.2s-2,3.2,0,3.2h0Z"/>
    <path class="st11" d="M123.8,222.9c2,0,2-3.2,0-3.2s-2,3.2,0,3.2h0Z"/>
    <path class="st11" d="M162.8,179.3c2,0,2-3.2,0-3.2s-2,3.2,0,3.2h0Z"/>
    <path class="st11" d="M151.7,183.5c2,0,2-3.2,0-3.2s-2,3.2,0,3.2h0Z"/>
    <path class="st11" d="M164.7,189.3c2,0,2-3.2,0-3.2s-2,3.2,0,3.2h0Z"/>
    <path class="st11" d="M220.2,204.3s4.2.6,2.1,5.6c0,0,.9-4.2-2.1-5.6Z"/>
    <path class="st11" d="M188.6,200.5s1.9-1.3-1.2-5.4c0,0,2.1,3.7,1.2,5.4Z"/>
    <path class="st11" d="M184.3,221.3s2.9.5,1.3,5.5c0,0,.7-4.2-1.3-5.5Z"/>
    <path class="st11" d="M172,176.4s4.2.6,2.1,5.6c0,0,.9-4.2-2.1-5.6Z"/>
    <path class="st11" d="M120.1,213.7s-2.3,1.9-1.3,4.2-1-2,1.3-4.2Z"/>
    <path class="st11" d="M167,243.9c0-.9-1,4.6.8,5.8s-.8-1.6-.8-5.8Z"/>
    <path class="st14" d="M272.7,184.2s13.7,10.7,14.4,12c.7,1.3,16.1,8.4,20,13.5,3.8,5.1,10.8,12.7,7.4,23.3-3.4,10.7-18.7,13.6-18.7,13.6,0,0-8.4,1.4-9.4,2-1,.6-10.1-1.5-10.1-1.5l-27.8,1.1"/>
    <path class="st1" d="M253.3,179.1s28-4.1,31.6,29.8c3.6,33.9-32.1,40.2-36.5,39.4-4.3-.8-17.7-6.9-23.4-16.7-5.7-9.8.4-36.3,5.2-42.5,4.8-6.2,17.3-12.2,23.1-9.9h0Z"/>
    <path class="st12" d="M269.4,185.8c2.4,1.8,4.8,3.9,6.6,6.3,1.7,2.3,2.9,4.7,3.7,7.4,1.8,5.8,2.4,12.2,1.8,18.2-.6,6.3-3.1,12.3-7.9,16.6-1.3,1.1-2.6,2-4.1,2.8-1.8.9-3.3,2.1-5.2,2.9-3.1,1.3-6.3,2.5-9.6,3.5s-6.1,1.7-9.2.2c-1.7-.8-3.2-1.8-4.8-2.6s-3.1-1.6-4.5-2.7c-1.5-1.2-2.9-2.5-4.2-3.8s-2.5-2.6-3.5-4.2c-1.5-2.5-2.1-5.1-2.2-7.9-.2-3.6-.2-7.2.3-10.7.6-4.4,1.8-8.7,3.1-12.9,1.2-3.6,2.3-7.3,5.3-9.9,1.5-1.3,3.2-2.4,4.9-3.4,1.5-.9,3.1-1.8,4.8-2.4,1.2-.5,2.3-.8,3.6-1,.4,0-.2,0,0,0,.1,0,.2,0,.3,0,.2,0,.4,0,.6,0,.2,0,.4,0,.6,0,.2,0,.8.1.2,0,.3,0,.5.1.8.2.1,0,.2,0,.3.1.4.1-.3-.2,0,0,.5.3,1,.4,1.5.4,4.5-.3,9.2,0,13.5,1.3,1.2.4,2.2.9,3.3,1.7.7.5,1.8.1,2.2-.6.5-.8.1-1.7-.6-2.2-3.3-2.4-7.7-3.1-11.7-3.4-2.3-.2-4.7-.2-7.1,0l.8.2c-3-1.5-6.4-.9-9.5.4-3.4,1.4-6.6,3.3-9.5,5.5-1.5,1.1-2.8,2.4-3.8,3.9-1,1.4-1.7,3.1-2.3,4.7-1.4,3.6-2.5,7.4-3.4,11.2-.9,4-1.6,8.1-1.5,12.2,0,2.7,0,5.5.4,8.2.5,2.9,1.7,5.6,3.5,7.9,1.2,1.5,2.5,2.8,3.9,4.1,1.2,1.1,2.4,2.2,3.7,3.3,1.4,1.1,2.9,1.9,4.5,2.7s3,1.7,4.5,2.4,3.2,1.3,4.9,1.5c1.5.1,3-.1,4.4-.4,3-.7,5.9-1.8,8.8-2.9,1.6-.6,3.2-1.2,4.8-1.9,1.7-.8,3.1-1.9,4.7-2.7,2.9-1.5,5.4-3.5,7.4-6.1,3.8-4.8,5.7-10.6,6.2-16.6.5-5.7-.2-11.7-1.6-17.3-1.4-5.4-4.2-10-8.4-13.7-1.2-1.1-2.5-2.1-3.7-3-.7-.5-1.8-.1-2.2.6-.5.8-.1,1.7.6,2.2h0Z"/>
    <path class="st2" d="M249.5,56.7c1.2,2.6,2.7,5.1,5,6.8s5.3,2.7,8.2,1.9c1.5-.4.8-2.7-.6-2.3-5,1.4-8.7-3.7-10.4-7.7-.3-.6-1.1-.7-1.6-.4-.6.3-.7,1-.4,1.6h0Z"/>
    <path class="st2" d="M260,61.2c2.1-8.8,3.5-18.5,10.3-24.5,2.7-2.5,5-4.9,7.6-7.5.2-.2.4-.4.3-.7,0-.2-.2-.4-.4-.6-3.5-2.7-4.3-5.2-6.3-9.2-8.5,11.5-12,25.8-16,39.5-.4,1.4-.8,3-.2,4.3s4.1,0,4.7-1.4"/>
    <path class="st2" d="M260.6,61.4c1.5-6.4,2.6-13.2,5.9-19,.8-1.4,1.7-2.7,2.8-3.9,1.2-1.4,2.7-2.5,4-3.8,1.5-1.4,2.9-2.9,4.3-4.4.4-.5,1.1-.9,1.2-1.6.1-.9-.8-1.3-1.4-1.8-2.6-2.3-3.9-5.3-5.4-8.4-.2-.5-.8-.3-1.1,0-4.6,6.3-7.8,13.5-10.4,20.9-1.3,3.7-2.4,7.5-3.5,11.2-.5,1.9-1.1,3.8-1.6,5.6-.5,1.7-1.3,3.6-1.1,5.5.2,1.6,1.1,2.4,2.7,2.1,1.3-.2,2.9-1,3.5-2.2.4-.7-.7-1.4-1.1-.6-.5.9-1.8,1.5-2.8,1.6-1.7.2-1-2.6-.7-3.6.9-3.3,1.9-6.6,2.9-9.9,2-6.7,4.1-13.4,7.2-19.8,1.7-3.6,3.7-7,6.1-10.2h-1.1c1.3,2.6,2.4,5.3,4.3,7.4.5.6,1.1,1.1,1.7,1.6.1.1.3.2.4.3.3.3.2,0,.2.3,0,.2-.4.4-.5.5-.2.2-.4.4-.6.7-1.4,1.4-2.7,2.8-4.1,4.2-1.3,1.3-2.7,2.4-3.9,3.8-1,1.1-1.9,2.4-2.7,3.7-1.6,2.7-2.7,5.8-3.6,8.8-1,3.5-1.7,7.2-2.6,10.7-.2.8,1,1.1,1.2.3h0Z"/>
    <g class="st13">
      <path class="st2" d="M213.6,22.2c2.5-2.3,6.7-2,8.6.9.8,1.2,1.6,3.3.8,4.7s-2.8.6-3.5-.6c-1.6-2.7.3-5.5,2.6-6.9,2.5-1.5,5.6-1.9,8.4-1.3,3.1.7,5.5,2.7,7.5,5,1.8,2.2,4.5,6.6.9,8.5-1,.5-2.4.6-3-.6-.7-1.4.5-3,1.5-3.8,2.3-2.1,6.2-2.8,9.2-2,1.8.4,3.4,1.4,4.6,2.8,1.4,1.6,2.4,3.5,3.4,5.4,2.1,3.8,4,8,3.5,12.5-.1,1,1.5,1,1.6,0,.6-4.9-1.6-9.5-3.9-13.7-1.1-2-2.3-4.2-3.9-5.9-1.4-1.4-3.2-2.3-5.2-2.7-3.8-.8-8.6.2-11.1,3.4-1.1,1.4-1.9,3.3-.9,5,.8,1.5,2.6,2,4.2,1.5s2.9-1.7,3.3-3.3c.6-2.2-.4-4.6-1.6-6.4-2.2-3.2-5.3-6.2-9.2-7.1-3.5-.9-7.6-.2-10.6,1.9-1.4,1-2.5,2.2-3.1,3.8-.6,1.7-.2,3.8.9,5.3,1.1,1.4,3.2,2.1,4.9,1.1,1.8-1.1,1.8-3.6,1.2-5.4-1.3-4-5.6-6.2-9.6-4.7-.9.3-1.8.9-2.5,1.5s.4,1.8,1.1,1.1h0Z"/>
    </g>
    <path class="st3" d="M62.7,142.4v.3c0,.2,0,.3.1.5,0,.1.1.3.2.4.1.1.2.2.4.2.1,0,.3.1.5.1h.3c.2-.1.4-.2.5-.3l.2-.2c.1-.2.2-.4.2-.6v-.3c0-.2,0-.3-.1-.5,0-.1-.1-.3-.2-.4-.1-.1-.2-.2-.4-.2-.1,0-.3-.1-.5-.1h-.3c-.2.1-.4.2-.5.3l-.2.2c-.1.2-.2.4-.2.6h0Z"/>
    <path class="st3" d="M56.7,156.6c1.5,0,1.5-2.4,0-2.4s-1.5,2.4,0,2.4h0Z"/>
    <path class="st3" d="M72.1,171.9c1.5,0,1.5-2.4,0-2.4s-1.5,2.4,0,2.4h0Z"/>
    <path class="st3" d="M87.8,164.8c1.5,0,1.5-2.4,0-2.4s-1.5,2.4,0,2.4h0Z"/>
    <path class="st3" d="M86.1,151.5c1.5,0,1.5-2.4,0-2.4s-1.5,2.4,0,2.4h0Z"/>
    <path class="st3" d="M49.6,170.9c1.5,0,1.5-2.4,0-2.4s-1.5,2.4,0,2.4h0Z"/>
    <path class="st3" d="M101.1,161.3c1.5,0,1.5-2.4,0-2.4s-1.5,2.4,0,2.4h0Z"/>
    <path class="st3" d="M52.7,136.8c1.5,0,1.5-2.4,0-2.4s-1.5,2.4,0,2.4h0Z"/>
    <path class="st3" d="M42.8,151.1c1,0,1-1.6,0-1.6s-1,1.6,0,1.6h0Z"/>
    <path class="st3" d="M47.5,187.9c1,0,1-1.6,0-1.6s-1,1.6,0,1.6h0Z"/>
    <path class="st3" d="M71.1,208.7c1,0,1-1.6,0-1.6s-1,1.6,0,1.6h0Z"/>
    <path class="st3" d="M87.8,210.7c1,0,1-1.6,0-1.6s-1,1.6,0,1.6h0Z"/>
    <path class="st3" d="M106.3,202.6c1,0,1-1.6,0-1.6s-1,1.6,0,1.6h0Z"/>
    <path class="st3" d="M94,198.4c1,0,1-1.6,0-1.6s-1,1.6,0,1.6h0Z"/>
    <path class="st3" d="M112.3,187.9c1,0,1-1.6,0-1.6s-1,1.6,0,1.6h0Z"/>
    <path class="st3" d="M112.3,173.9c1,0,1-1.6,0-1.6s-1,1.6,0,1.6h0Z"/>
    <path class="st3" d="M100.1,178.6c1,0,1-1.6,0-1.6s-1,1.6,0,1.6h0Z"/>
    <path class="st10" d="M335,222c2,0,2-3.2,0-3.2s-2,3.2,0,3.2h0Z"/>
    <path class="st10" d="M17.3,221.2h323.6c2,0,2-3.2,0-3.2H17.3c-2,0-2,3.2,0,3.2h0Z"/>
    <path class="st3" d="M63.6,191.8c3.1,0,3.1-4.8,0-4.8s-3.1,4.8,0,4.8h0Z"/>
    <path class="st3" d="M80.4,194.3c3.1,0,3.1-4.8,0-4.8s-3.1,4.8,0,4.8h0Z"/>
    <path class="st3" d="M85.3,181c3.1,0,3.1-4.8,0-4.8s-3.1,4.8,0,4.8h0Z"/>
    <path class="st10" d="M16.8,219.7c14.2,19.2,33.9,33.3,55.2,42.6,21.3,9.3,44.1,14.2,67,17.2,31.3,4.1,63.2,4.9,94.3-.7,31.1-5.5,61.5-17.5,86.9-37.4,7.7-6,15.9-13.1,20.7-21.9"/>
    <path class="st10" d="M15.4,220.5c6.5,8.8,14.2,16.7,22.8,23.5,8.5,6.7,17.8,12.5,27.6,17.2,10.9,5.3,22.5,9.3,34.2,12.4,12,3.2,24.2,5.4,36.5,7.1,12.8,1.7,25.6,2.9,38.5,3.4s25.9.2,38.8-1.1c12.1-1.2,24.1-3.2,35.9-6.1,11.1-2.8,22-6.5,32.4-11.1,10.5-4.6,20.6-10.1,30-16.5,4.7-3.2,9.2-6.6,13.6-10.3s8.5-7.5,12-11.9c1.7-2.1,3.3-4.4,4.6-6.8,1-1.8-1.7-3.4-2.7-1.6-5.3,9.6-14.1,16.8-22.8,23.3-9.1,6.8-18.8,12.7-29,17.6-10.1,4.9-20.6,8.9-31.4,12.1-11.1,3.2-22.5,5.6-33.9,7.1-12.6,1.7-25.4,2.3-38.1,2.3-12.7,0-25.5-1-38.2-2.4-12.2-1.4-24.3-3.3-36.3-5.9-12-2.7-23.8-6.2-35.1-11-9.9-4.2-19.4-9.3-28.2-15.4-8.8-6.1-16.8-13.3-23.8-21.4-1.7-2-3.3-4-4.8-6-.5-.7-1.4-1-2.2-.6-.7.4-1.1,1.5-.6,2.2h0Z"/>
  </g>
</svg>